<svg
	version="1.1"
	xmlns="http://www.w3.org/2000/svg"
	width="32"
	height="32"
	viewBox="0 0 32 32"
	fill="none"
	stroke-width="1.5"
	stroke-linecap="round"
	stroke-linejoin="round"
	style="pointer-events: auto"
>
	<style>
	path {
		stroke: black;
		@media (prefers-color-scheme: dark) {
			stroke: white;
		}
	}
	</style>
	<path
		d="M 22.289192025184736,29.36632163595238 L 22.618258132214606,29.535975763694363 L 23.511437565580035,30.061095682906945 L 23.97481636936147,30.25498611462027 L 24.27030430220345,30.408482706387097 L 26.72151101783354,31.838424640242724 L 26.9699895068182,31.967684928049692 L 27.050577124863413,32 L 27.10430220356022,32 L 27.131164742918166,31.983842464024846 L 27.198321091284402,31.85458217621788 L 27.628121720877942,31.224438273163926 L 27.775865687298936,31.046705377431497 L 28.064637985310974,30.58621560211953 L 28.360125918152953,30.190355970713917 L 28.722770199370714,29.608684675585426 L 29.300314795375705,28.776571572833443 L 29.783840503666053,28.089876293863586 L 30.19349422875068,27.540520070691144 L 30.368100734520073,27.257763191111604 L 30.83819517313145,26.603382984092054 L 30.979223504722494,26.36101994445901 L 31.241133263376586,26.02979045695401 L 31.58363064007589,25.431961625850366 L 31.905981112275818,24.914920474628232 L 32,24.6887149709646 L 32,24.527139611207325 L 31.93284365162422,24.4059580913908 L 31.9126967471153,24.325170411509294 L 31.885834207757355,24.30901287553414 L 31.697796432318533,24.341327947490186 L 31.657502623291155,24.341327947490186 L 31.603777544594347,24.300934107549434 L 31.44931794333387,24.03433476395079 L 31.3485834207702,23.800050492302454 L 31.30157397691288,23.517293612722913 L 31.30157397691288,23.27493057308987 L 31.375445960118604,22.927543549609716 L 31.476180482682274,22.66902297399578 L 31.48961175236125,22.62055036607032 L 31.4627492130033,22.53976268618881 L 31.3485834207702,22.38626609442198 L 31.2344176285371,22.305478414540474 L 31.207555089188695,22.12774551880804 L 30.83819517313145,21.521837919713953 L 30.596432318986274,21.27139611209046 L 30.50241343126209,21.029033072457416 L 30.394963273868477,20.79474880080908 L 28.789926547736954,18.120676596820708 L 28.588457502619153,17.83791971724117 L 28.35341028331347,17.393587477910096 L 27.695278069253725,16.31911133551933 L 27.581112277020623,16.173693511737206 L 27.50052465896587,16.141378439786898 L 27.45351521510855,16.05251199192068 L 27.33934942287545,15.907094168138563 L 27.245330535151265,15.648573592524624 L 27.151311647427082,15.438525624841887 L 26.949842602309285,15.083059833377028 L 26.781951731369833,14.832618025747795 L 26.68793284364565,14.582176218124307 L 26.634207764948844,14.49330977025809 L 26.466316894018934,14.364049482451122 L 26.372298006294752,14.234789194644154 L 26.264847848891595,13.863165867204138 L 26.19769150052536,13.73390557939717 L 26.0902413431222,13.604645291590202 L 25.861909758656,13.467306235798524 L 25.835047219307597,13.418833627873067 L 25.7477439664229,13.160313052259127 L 25.599999999992367,12.85331986871973 L 24.7806925498422,11.488008078764718 L 24.706820566626934,11.415299166873659 L 24.31731374606077,11.237566271141226 L 23.860650577118825,10.995203231508185 L 23.457712486883228,10.833627871745168 L 20.791605456446824,9.541024993686957 L 20.53641133263222,9.371370865939234 L 20.28793284364756,9.17748043423165 L 19.93871983210877,8.991668770508774 L 19.817838405036184,8.902802322642561 L 19.5223504721942,8.75738449886044 L 19.294018887718458,8.67659681898467 L 19.119412381949065,8.547336531177702 L 18.964952780688588,8.32113102751407 L 18.723189926543412,7.585963140618752 L 18.703043022034496,7.505175460742983 L 18.74333683106187,6.834637717748279 L 18.723189926543412,6.592274678109494 L 18.7299055613829,6.503408230243281 L 18.68289611752558,6.349911638470708 L 18.68289611752558,6.220651350669481 L 18.615739769149798,6.0186821509714505 L 18.635886673658714,5.81671295127342 L 18.68289611752558,5.5985862156002355 L 18.676180482686092,5.43701085584296 L 18.669464847846605,5.404695783892652 L 18.615739769149798,5.3400656399863 L 18.400839454353026,5.283514264070391 L 18.373976915004622,5.259277960110531 L 18.340398740816735,5.210805352179332 L 18.293389296959415,4.9361272405959795 L 18.118782791180475,4.750315576873103 L 18.09863588667156,4.709921736932348 L 18.03147953829578,4.354455945467489 L 18.01133263378686,3.893966170155519 L 18.03147953829578,3.3769250189333846 L 18.125498426019963,3.0214592274627847 L 18.159076600207854,2.9729866195373233 L 18.36726128016514,2.77909618782974 L 18.206086044065174,2.722544811913835 L 18.065057712483668,2.5044180762406505 L 18.071773347323155,2.4478667003247416 L 18.185939139556258,2.1974248927012496 L 18.19937040923523,2.052007068919128 L 17.964323189919998,1.7611714213548844 L 17.225603357815046,1.0744761423850235 L 16.641343126961026,0.6463014390291058 L 16.231689401885944,0.41201716738076755 L 15.916054564535047,0.2908356475585059 L 15.53997901363831,0.12118151981652048 L 15.49296956978099,0.08886644786621645 L 15.35865687302943,0.08078767987576896 L 15.204197271768953,0.024236303959860095 L 15.110178384044769,0 L 15.063168940187449,0.01615753597515379 L 15.002728226651156,0.13733905579167427 L 14.841552990551191,0.654380207013812 L 14.640083945433394,1.0906336783601773 L 14.593074501576075,1.2441302701327466 L 14.438614900315596,1.4784145417810848 L 14.405036726127706,1.5753597576320075 L 14.36474291710033,1.7773289573300382 L 14.163273871982533,2.1893461247108057 L 14.136411332634129,2.3509214844738224 L 14.163273871982533,2.512496844231098 L 14.149842602303558,2.6175208280724647 L 14.089401888767265,2.7144660439233874 L 13.921511017837357,2.892198939661558 L 13.861070304301064,2.981065387527771 L 13.8140608604342,3.1345619792946025 L 13.861070304301064,3.385003786918091 L 13.854354669461577,3.4981065387499086 L 13.793913955925284,3.595051754606569 L 13.639454354664807,3.7162332744230895 L 13.579013641128512,3.8131784902797534 L 13.532004197271192,4.0070689219873366 L 13.505141657922788,4.2575107296108285 L 13.444700944386495,4.451401161318412 L 13.263378803777615,4.814945720773718 L 13.202938090241322,4.911890936630378 L 13.02161594963244,5.065387528397206 L 12.927597061908257,5.2188841201697755 L 12.732843651620403,5.445089623827666 L 12.544805876181579,5.808634183282972 L 12.497796432314715,5.8490280232237275 L 12.35676810073321,5.929815703105234 L 12.148583420775926,6.446856854327372 L 11.933683105979156,6.899267861648891 L 11.846379853094458,6.971976773539954 L 11.658342077646092,7.020449381465415 L 11.584470094440368,7.101237061346922 L 11.11437565581945,8.232264579647854 L 10.946484784889542,8.67659681898467 L 10.933053515210569,8.73314819490058 L 10.939769150050054,8.789699570816484 L 10.986778593916918,8.813935874776345 L 11.201678908704146,8.862408482701806 L 11.483735571876696,8.967432466548914 L 11.685204616994495,9.015905074474375 L 12.12843651626701,9.193637970206805 L 12.215739769151707,9.25826811411316 L 12.256033578169541,9.314819490023329 L 12.276180482688,9.35521332996408 L 12.282896117517943,9.419843473870436 L 12.276180482688,9.484473617771052 L 12.141867785936439,9.823781873260756 L 11.940398740818642,10.26811411259757 L 11.571038824761393,11.326432719007443 L 10.792025183629065,13.208785660184589 L 10.624134312699157,13.628881595555804 L 10.556977964323377,13.847008331228984 L 10.530115424974973,13.879323403179292 L 10.456243441759705,13.895480939154446 L 9.845120671557282,13.717748043422016 L 9.10640083945233,13.45922746780808 L 9.059391395595009,13.45922746780808 L 9.005666316888659,13.499621307748832 L 8.683315844698274,14.469073466292489 L 8.52214060859831,14.784145417822337 L 8.42812172088367,15.091138601361735 L 8.340818467998973,15.293107801059765 L 8.105771248683743,15.858621560213102 L 8.058761804826421,15.907094168138563 L 8.011752360959559,15.915172936129007 L 7.937880377753835,15.89093663216341 L 7.655823714581284,15.705124968440533 L 7.61552990556345,15.697046200455826 L 7.54837355718767,15.713203736430977 L 7.51479538299978,15.73744004039084 L 7.286463798533578,16.05251199192068 L 6.83651626443112,16.56955314314282 L 6.702203567679559,16.682655894974637 L 6.554459601258569,16.836152486747203 L 6.124658971665027,17.183539510221618 L 5.842602308502019,17.474375157785865 L 5.708289611750458,17.635950517543137 L 5.211332633790679,18.120676596820708 L 5.117313746066496,18.23377934864678 L 4.915844700939155,18.379197172428903 L 4.633788037776147,18.637717748042842 L 4.351731374603595,18.920474627616642 L 4.298006295906789,18.960868467557397 L 4.250996852049469,18.97702600353255 L 4.177124868834202,18.944710931582243 L 3.975655823716404,18.81545064377527 L 3.9152151101801107,18.799293107800118 L 3.8077649527769535,18.831608179750425 L 3.7204616998922564,18.89623832365678 L 3.5928646379801825,19.073971219389207 L 3.4182581322107883,19.219389043171333 L 3.230220356771964,19.42943701085407 L 2.8742917103841457,19.776824034334222 L 2.397481636933284,20.293865185556356 L 2.2430220356728063,20.479676849279237 L 2.0616998950639256,20.633173441051802 L 1.9206715634824216,20.802827568793788 L 1.6251836306404404,21.09366321635803 L 1.3431269674678892,21.392577631912722 L 0.8058761804807335,21.90961878313486 L 0.6111227702024227,22.119666750817593 L 0.06715634837578033,22.64478667003018 L 0.026862539348403432,22.69325927796138 L 0.020146904508916704,22.733653117896395 L 0.053725078696806865,22.903307245644115 L 0,23.113355213326855 L 0,23.16990658924276 L 0.08730325288469704,23.283009341074575 L 0.35592864637827487,23.484978540772605 L 0.617838405032366,23.848523100227915 L 0.8864637985259438,24.03433476395079 L 0.9334732423928074,24.02625599596034 L 0.9804826862501276,23.92931078010368 L 1.2491080797437053,23.590002524613972 L 1.396852046164696,23.47689977278216 L 1.9273871983219084,22.951779853569576 L 2.0348373557155224,22.959858621560024 L 1.1953830010468984,23.791971724312006 L 1.0274921301169913,23.945468316078834 L 0.8998950682049173,24.042413531935495 L 0.8327387198291369,24.066649835901096 L 0.7655823714533566,24.042413531935495 L 0.5641133263355591,23.913153244128527 L 0.5439664218266423,23.872759404187775 L 0.5641133263355591,23.80812926028716 L 0.7118572927565497,23.65463266852033 L 0.819307450159707,23.52537238071336 L 0.9536201469017241,23.32340318101533 L 1.0543546694653947,23.210300429183512 L 1.2222455403953019,23.089118909366995 L 1.7124868835251374,22.61247159807987 L 1.7662119622219443,22.596314062104717 L 1.8065057712493213,22.62055036607032 L 2.9213011542510094,23.50113607674776 L 3.3645330535139815,23.888916940168667 L 3.4048268625413582,23.937389548094128 L 3.4182581322107883,24.03433476395079 L 3.3981112277018717,24.08280737187625 L 3.1160545645293203,24.389800555415647 L 2.5989506820606247,24.906841706637785 L 2.5989506820606247,24.963393082553694 L 2.8339979013663124,25.19767735420203 L 2.854144805875229,25.310780106033846 L 2.9011542497325493,25.39964655390006 L 3.371248688353468,25.755112345364918 L 3.4384050367292485,25.77934864933052 L 3.599580272819669,25.763191113355365 L 3.6667366211954495,25.771269881345813 L 3.901783840501137,25.82782125725598 L 4.197271773343118,25.87629386518718 L 4.264428121718899,25.957081545062948 L 4.358447009443083,26.110578136835517 L 4.4591815320067525,26.344862408483856 L 4.54648478489145,26.41757132037492 L 4.956138509966531,26.546831608181886 L 5.184470094442276,26.6356980560481 L 5.715005246589945,26.82150971976524 L 5.755299055617322,26.78919464781493 L 5.923189926547229,26.272153496592793 L 6.2119622245497235,25.561221913657334 L 6.238824763898127,25.456197929815968 L 6.339559286461798,25.27038626609309 L 6.339559286461798,25.173441050242168 L 6.272402938086017,24.955314314568984 L 6.279118572925504,24.850290330721876 L 6.487303252882788,24.268619035599126 L 6.534312696749652,24.171673819742466 L 6.588037775446459,24.155516283767312 L 7.179013641130421,24.325170411509294 L 7.4006295907666795,24.41403685938125 L 7.575236096536073,24.43827316334111 L 7.64910807975134,24.41403685938125 L 7.830430220360221,24.48674577127231 L 7.937880377753835,24.591769755113678 L 8.005036726129616,24.624084827063985 L 8.233368310595816,24.680636202979894 L 9.166841552988624,25.028023226460046 L 9.509338929697469,25.11688967432626 L 9.83840503672734,25.238071194142783 L 10.50325288562657,25.456197929815968 L 10.785309548789577,25.528906841707027 L 11.053934942283155,25.633930825548397 L 11.154669464846826,25.658167129514 L 11.194963273874203,25.658167129514 L 11.436726128019377,25.060338298410354 L 11.698635886673468,24.349406715474895 L 11.900104931791265,23.896995708153373 L 12.121720881427523,23.32340318101533 L 12.262749213009027,23.032567533451086 L 12.383630640081615,22.685180509970934 L 12.450786988457395,22.572077758139116 L 12.497796432314715,22.531683918204102 L 12.564952780690495,22.53976268618881 L 12.793284365156696,22.62055036607032 L 13.075341028329246,22.69325927796138 L 13.444700944386495,22.846755869728206 L 14.290870933894606,23.331481949000036 L 14.807974816363302,23.565766220648374 L 15.412381951726237,23.985862156019586 L 15.714585519407706,24.155516283767312 L 16.177964323189137,24.43827316334111 L 16.493599160540036,24.60792729108883 L 16.916684155294092,24.858369098712323 L 17.138300104930348,24.963393082553694 L 17.35320041972712,25.09265337036066 L 17.964323189919998,25.47235546579112 L 18.206086044065174,25.666245897498705 L 18.47471143755875,25.82782125725598 L 19.69024134312411,26.498359000250684 L 20.08646379852976,26.756879575864623 L 20.919202518358897,27.2254481191613 L 21.18111227701299,27.39510224690902 L 21.201259181531448,27.435496086844033 L 21.174396642183044,27.475889926784788 L 20.737880377750017,28.065639989903726 L 20.690870933892697,28.170663973745093 L 20.68415529905321,28.291845493561617 L 20.76474291709842,28.413027013378137 L 20.90577124868947,28.5342085332004 L 21.792235047215414,29.059328452412984"
		style="pointer-events: auto"
	></path>
</svg>
